<mxfile host="app.diagrams.net" agent="Mozilla/5.0 (Windows NT 10.0; Win64; x64) AppleWebKit/537.36 (KHTML, like Gecko) Chrome/138.0.0.0 Safari/537.36" version="28.0.6">
  <diagram name="第 1 页" id="qQoMLbe446UCx21tgDgP">
    <mxGraphModel dx="2040" dy="631" grid="1" gridSize="10" guides="1" tooltips="1" connect="1" arrows="1" fold="1" page="1" pageScale="1" pageWidth="827" pageHeight="1169" math="0" shadow="0">
      <root>
        <mxCell id="0" />
        <mxCell id="1" parent="0" />
        <mxCell id="21PZatJOxBAHX9u_luXF-14" style="edgeStyle=orthogonalEdgeStyle;orthogonalLoop=1;jettySize=auto;html=1;exitX=0.75;exitY=1;exitDx=0;exitDy=0;entryX=0.75;entryY=0;entryDx=0;entryDy=0;" parent="1" source="NCb64TqYSXtvt93eE6UL-1" target="21PZatJOxBAHX9u_luXF-1" edge="1">
          <mxGeometry relative="1" as="geometry" />
        </mxCell>
        <mxCell id="21PZatJOxBAHX9u_luXF-15" value="QueueBufferExtraction" style="edgeLabel;html=1;align=center;verticalAlign=middle;resizable=0;points=[];" parent="21PZatJOxBAHX9u_luXF-14" vertex="1" connectable="0">
          <mxGeometry x="0.1222" relative="1" as="geometry">
            <mxPoint x="15" as="offset" />
          </mxGeometry>
        </mxCell>
        <mxCell id="21PZatJOxBAHX9u_luXF-16" style="edgeStyle=orthogonalEdgeStyle;orthogonalLoop=1;jettySize=auto;html=1;exitX=0.25;exitY=0;exitDx=0;exitDy=0;entryX=0.25;entryY=1;entryDx=0;entryDy=0;" parent="1" source="NCb64TqYSXtvt93eE6UL-1" target="21PZatJOxBAHX9u_luXF-6" edge="1">
          <mxGeometry relative="1" as="geometry" />
        </mxCell>
        <mxCell id="21PZatJOxBAHX9u_luXF-18" value="CreateSRV/UAV" style="edgeLabel;html=1;align=center;verticalAlign=middle;resizable=0;points=[];" parent="21PZatJOxBAHX9u_luXF-16" vertex="1" connectable="0">
          <mxGeometry x="0.0444" relative="1" as="geometry">
            <mxPoint as="offset" />
          </mxGeometry>
        </mxCell>
        <mxCell id="NCb64TqYSXtvt93eE6UL-1" value="FRDGBuffer [RDG]" style="rounded=0;whiteSpace=wrap;html=1;" parent="1" vertex="1">
          <mxGeometry x="200" y="120" width="180" height="60" as="geometry" />
        </mxCell>
        <mxCell id="21PZatJOxBAHX9u_luXF-10" style="edgeStyle=orthogonalEdgeStyle;orthogonalLoop=1;jettySize=auto;html=1;exitX=0.75;exitY=1;exitDx=0;exitDy=0;entryX=0.75;entryY=0;entryDx=0;entryDy=0;" parent="1" source="21PZatJOxBAHX9u_luXF-1" target="21PZatJOxBAHX9u_luXF-2" edge="1">
          <mxGeometry relative="1" as="geometry" />
        </mxCell>
        <mxCell id="21PZatJOxBAHX9u_luXF-11" value="GetRHI" style="edgeLabel;html=1;align=center;verticalAlign=middle;resizable=0;points=[];" parent="21PZatJOxBAHX9u_luXF-10" vertex="1" connectable="0">
          <mxGeometry x="-0.0381" y="-1" relative="1" as="geometry">
            <mxPoint x="-4" as="offset" />
          </mxGeometry>
        </mxCell>
        <mxCell id="21PZatJOxBAHX9u_luXF-12" style="edgeStyle=orthogonalEdgeStyle;orthogonalLoop=1;jettySize=auto;html=1;exitX=0.25;exitY=0;exitDx=0;exitDy=0;entryX=0.25;entryY=1;entryDx=0;entryDy=0;" parent="1" source="21PZatJOxBAHX9u_luXF-1" target="NCb64TqYSXtvt93eE6UL-1" edge="1">
          <mxGeometry relative="1" as="geometry" />
        </mxCell>
        <mxCell id="21PZatJOxBAHX9u_luXF-13" value="RegisterExternalResource" style="edgeLabel;html=1;align=center;verticalAlign=middle;resizable=0;points=[];" parent="21PZatJOxBAHX9u_luXF-12" vertex="1" connectable="0">
          <mxGeometry x="-0.1556" y="-2" relative="1" as="geometry">
            <mxPoint x="-27" as="offset" />
          </mxGeometry>
        </mxCell>
        <mxCell id="21PZatJOxBAHX9u_luXF-1" value="FRDGPooledBuffer [Persistent]" style="rounded=0;whiteSpace=wrap;html=1;" parent="1" vertex="1">
          <mxGeometry x="200" y="240" width="180" height="60" as="geometry" />
        </mxCell>
        <mxCell id="21PZatJOxBAHX9u_luXF-8" style="edgeStyle=orthogonalEdgeStyle;orthogonalLoop=1;jettySize=auto;html=1;exitX=0.25;exitY=0;exitDx=0;exitDy=0;entryX=0.25;entryY=1;entryDx=0;entryDy=0;" parent="1" source="21PZatJOxBAHX9u_luXF-2" target="21PZatJOxBAHX9u_luXF-1" edge="1">
          <mxGeometry relative="1" as="geometry" />
        </mxCell>
        <mxCell id="21PZatJOxBAHX9u_luXF-9" value="constructor" style="edgeLabel;html=1;align=center;verticalAlign=middle;resizable=0;points=[];" parent="21PZatJOxBAHX9u_luXF-8" vertex="1" connectable="0">
          <mxGeometry x="-0.0762" y="3" relative="1" as="geometry">
            <mxPoint y="-7" as="offset" />
          </mxGeometry>
        </mxCell>
        <mxCell id="21PZatJOxBAHX9u_luXF-2" value="FRHIBuffer [Physical]" style="rounded=0;whiteSpace=wrap;html=1;" parent="1" vertex="1">
          <mxGeometry x="200" y="424" width="180" height="60" as="geometry" />
        </mxCell>
        <mxCell id="21PZatJOxBAHX9u_luXF-23" style="edgeStyle=orthogonalEdgeStyle;orthogonalLoop=1;jettySize=auto;html=1;exitX=0.25;exitY=0;exitDx=0;exitDy=0;entryX=0.25;entryY=1;entryDx=0;entryDy=0;" parent="1" source="21PZatJOxBAHX9u_luXF-3" target="21PZatJOxBAHX9u_luXF-7" edge="1">
          <mxGeometry relative="1" as="geometry" />
        </mxCell>
        <mxCell id="21PZatJOxBAHX9u_luXF-27" value="m_descriptor" style="edgeLabel;html=1;align=center;verticalAlign=middle;resizable=0;points=[];" parent="21PZatJOxBAHX9u_luXF-23" vertex="1" connectable="0">
          <mxGeometry x="0.1111" y="-1" relative="1" as="geometry">
            <mxPoint y="3" as="offset" />
          </mxGeometry>
        </mxCell>
        <mxCell id="21PZatJOxBAHX9u_luXF-3" value="RPI::PassAttachment [RDG]" style="rounded=0;whiteSpace=wrap;html=1;" parent="1" vertex="1">
          <mxGeometry x="590" y="120" width="180" height="60" as="geometry" />
        </mxCell>
        <mxCell id="21PZatJOxBAHX9u_luXF-4" value="RHI::Buffer [Physical]" style="rounded=0;whiteSpace=wrap;html=1;" parent="1" vertex="1">
          <mxGeometry x="590" y="424" width="180" height="60" as="geometry" />
        </mxCell>
        <mxCell id="21PZatJOxBAHX9u_luXF-19" style="edgeStyle=orthogonalEdgeStyle;orthogonalLoop=1;jettySize=auto;html=1;exitX=0.75;exitY=1;exitDx=0;exitDy=0;entryX=0.75;entryY=0;entryDx=0;entryDy=0;" parent="1" source="21PZatJOxBAHX9u_luXF-5" target="21PZatJOxBAHX9u_luXF-4" edge="1">
          <mxGeometry relative="1" as="geometry" />
        </mxCell>
        <mxCell id="21PZatJOxBAHX9u_luXF-20" value="GetRHIBuffer" style="edgeLabel;html=1;align=center;verticalAlign=middle;resizable=0;points=[];" parent="21PZatJOxBAHX9u_luXF-19" vertex="1" connectable="0">
          <mxGeometry x="-0.1238" y="-1" relative="1" as="geometry">
            <mxPoint as="offset" />
          </mxGeometry>
        </mxCell>
        <mxCell id="21PZatJOxBAHX9u_luXF-21" style="edgeStyle=orthogonalEdgeStyle;orthogonalLoop=1;jettySize=auto;html=1;exitX=0.25;exitY=0;exitDx=0;exitDy=0;entryX=0.25;entryY=1;entryDx=0;entryDy=0;" parent="1" source="21PZatJOxBAHX9u_luXF-5" target="21PZatJOxBAHX9u_luXF-3" edge="1">
          <mxGeometry relative="1" as="geometry" />
        </mxCell>
        <mxCell id="21PZatJOxBAHX9u_luXF-22" value="m_importedResource" style="edgeLabel;html=1;align=center;verticalAlign=middle;resizable=0;points=[];" parent="21PZatJOxBAHX9u_luXF-21" vertex="1" connectable="0">
          <mxGeometry x="-0.0222" relative="1" as="geometry">
            <mxPoint x="-5" as="offset" />
          </mxGeometry>
        </mxCell>
        <mxCell id="21PZatJOxBAHX9u_luXF-5" value="RPI::Buffer [Persistent | Asset]" style="rounded=0;whiteSpace=wrap;html=1;" parent="1" vertex="1">
          <mxGeometry x="590" y="240" width="180" height="60" as="geometry" />
        </mxCell>
        <mxCell id="21PZatJOxBAHX9u_luXF-6" value="FRDGBufferSRV/UAV [View]" style="rounded=0;whiteSpace=wrap;html=1;" parent="1" vertex="1">
          <mxGeometry x="200" width="180" height="60" as="geometry" />
        </mxCell>
        <mxCell id="21PZatJOxBAHX9u_luXF-7" value="RHI::BufferView [View]" style="rounded=0;whiteSpace=wrap;html=1;" parent="1" vertex="1">
          <mxGeometry x="590" width="180" height="60" as="geometry" />
        </mxCell>
        <mxCell id="dF8RnB-I_yv6K1FxDzUF-3" style="edgeStyle=orthogonalEdgeStyle;rounded=0;orthogonalLoop=1;jettySize=auto;html=1;exitX=1;exitY=0.5;exitDx=0;exitDy=0;entryX=0;entryY=0.5;entryDx=0;entryDy=0;" edge="1" parent="1" source="dF8RnB-I_yv6K1FxDzUF-1" target="21PZatJOxBAHX9u_luXF-1">
          <mxGeometry relative="1" as="geometry" />
        </mxCell>
        <mxCell id="dF8RnB-I_yv6K1FxDzUF-4" value="AllocatePooledBuffer" style="edgeLabel;html=1;align=center;verticalAlign=middle;resizable=0;points=[];" vertex="1" connectable="0" parent="dF8RnB-I_yv6K1FxDzUF-3">
          <mxGeometry x="-0.2381" y="-1" relative="1" as="geometry">
            <mxPoint x="17" y="-1" as="offset" />
          </mxGeometry>
        </mxCell>
        <mxCell id="dF8RnB-I_yv6K1FxDzUF-1" value="FRDGBufferPool [Pool]" style="rounded=0;whiteSpace=wrap;html=1;" vertex="1" parent="1">
          <mxGeometry x="-120" y="240" width="180" height="60" as="geometry" />
        </mxCell>
        <mxCell id="dF8RnB-I_yv6K1FxDzUF-20" style="edgeStyle=orthogonalEdgeStyle;rounded=0;orthogonalLoop=1;jettySize=auto;html=1;exitX=0.5;exitY=1;exitDx=0;exitDy=0;entryX=0.5;entryY=0;entryDx=0;entryDy=0;" edge="1" parent="1" source="dF8RnB-I_yv6K1FxDzUF-5" target="dF8RnB-I_yv6K1FxDzUF-7">
          <mxGeometry relative="1" as="geometry" />
        </mxCell>
        <mxCell id="dF8RnB-I_yv6K1FxDzUF-21" value="GetRHIPool" style="edgeLabel;html=1;align=center;verticalAlign=middle;resizable=0;points=[];" vertex="1" connectable="0" parent="dF8RnB-I_yv6K1FxDzUF-20">
          <mxGeometry x="-0.0392" relative="1" as="geometry">
            <mxPoint as="offset" />
          </mxGeometry>
        </mxCell>
        <mxCell id="dF8RnB-I_yv6K1FxDzUF-5" value="RPI::BufferPool [Pool | Asset]" style="rounded=0;whiteSpace=wrap;html=1;" vertex="1" parent="1">
          <mxGeometry x="941" y="330" width="180" height="60" as="geometry" />
        </mxCell>
        <mxCell id="dF8RnB-I_yv6K1FxDzUF-8" style="edgeStyle=orthogonalEdgeStyle;rounded=0;orthogonalLoop=1;jettySize=auto;html=1;exitX=0;exitY=0.5;exitDx=0;exitDy=0;entryX=1;entryY=0.5;entryDx=0;entryDy=0;" edge="1" parent="1" source="dF8RnB-I_yv6K1FxDzUF-7" target="21PZatJOxBAHX9u_luXF-4">
          <mxGeometry relative="1" as="geometry" />
        </mxCell>
        <mxCell id="dF8RnB-I_yv6K1FxDzUF-9" value="InitBuffer" style="edgeLabel;html=1;align=center;verticalAlign=middle;resizable=0;points=[];" vertex="1" connectable="0" parent="dF8RnB-I_yv6K1FxDzUF-8">
          <mxGeometry x="0.1583" y="-1" relative="1" as="geometry">
            <mxPoint x="13" y="1" as="offset" />
          </mxGeometry>
        </mxCell>
        <mxCell id="dF8RnB-I_yv6K1FxDzUF-7" value="RHI::BufferPool [Pool]" style="rounded=0;whiteSpace=wrap;html=1;" vertex="1" parent="1">
          <mxGeometry x="941" y="424" width="180" height="60" as="geometry" />
        </mxCell>
        <mxCell id="dF8RnB-I_yv6K1FxDzUF-12" style="edgeStyle=orthogonalEdgeStyle;rounded=0;orthogonalLoop=1;jettySize=auto;html=1;entryX=1;entryY=0.5;entryDx=0;entryDy=0;" edge="1" parent="1" source="dF8RnB-I_yv6K1FxDzUF-11" target="21PZatJOxBAHX9u_luXF-5">
          <mxGeometry relative="1" as="geometry" />
        </mxCell>
        <mxCell id="dF8RnB-I_yv6K1FxDzUF-13" value="FindOrCreate" style="edgeLabel;html=1;align=center;verticalAlign=middle;resizable=0;points=[];" vertex="1" connectable="0" parent="dF8RnB-I_yv6K1FxDzUF-12">
          <mxGeometry x="0.1792" y="1" relative="1" as="geometry">
            <mxPoint x="14" y="-1" as="offset" />
          </mxGeometry>
        </mxCell>
        <mxCell id="dF8RnB-I_yv6K1FxDzUF-11" value="RPI::BufferAsset [ Asset]" style="rounded=0;whiteSpace=wrap;html=1;" vertex="1" parent="1">
          <mxGeometry x="941" y="240" width="180" height="60" as="geometry" />
        </mxCell>
        <mxCell id="dF8RnB-I_yv6K1FxDzUF-15" style="edgeStyle=orthogonalEdgeStyle;rounded=0;orthogonalLoop=1;jettySize=auto;html=1;entryX=1;entryY=0.5;entryDx=0;entryDy=0;" edge="1" parent="1" source="dF8RnB-I_yv6K1FxDzUF-14" target="dF8RnB-I_yv6K1FxDzUF-11">
          <mxGeometry relative="1" as="geometry" />
        </mxCell>
        <mxCell id="dF8RnB-I_yv6K1FxDzUF-16" value="create asset" style="edgeLabel;html=1;align=center;verticalAlign=middle;resizable=0;points=[];" vertex="1" connectable="0" parent="dF8RnB-I_yv6K1FxDzUF-15">
          <mxGeometry x="0.0133" y="2" relative="1" as="geometry">
            <mxPoint x="6" y="-2" as="offset" />
          </mxGeometry>
        </mxCell>
        <mxCell id="dF8RnB-I_yv6K1FxDzUF-14" value="RPI::BufferAssetCreator [Asset]" style="rounded=0;whiteSpace=wrap;html=1;" vertex="1" parent="1">
          <mxGeometry x="1260" y="240" width="180" height="60" as="geometry" />
        </mxCell>
        <mxCell id="dF8RnB-I_yv6K1FxDzUF-18" style="edgeStyle=orthogonalEdgeStyle;rounded=0;orthogonalLoop=1;jettySize=auto;html=1;exitX=0;exitY=0.5;exitDx=0;exitDy=0;entryX=1;entryY=0.5;entryDx=0;entryDy=0;" edge="1" parent="1" source="dF8RnB-I_yv6K1FxDzUF-17" target="dF8RnB-I_yv6K1FxDzUF-5">
          <mxGeometry relative="1" as="geometry" />
        </mxCell>
        <mxCell id="dF8RnB-I_yv6K1FxDzUF-19" value="FindOrCreate" style="edgeLabel;html=1;align=center;verticalAlign=middle;resizable=0;points=[];" vertex="1" connectable="0" parent="dF8RnB-I_yv6K1FxDzUF-18">
          <mxGeometry x="-0.0178" y="-2" relative="1" as="geometry">
            <mxPoint x="4" y="2" as="offset" />
          </mxGeometry>
        </mxCell>
        <mxCell id="dF8RnB-I_yv6K1FxDzUF-17" value="RPI::ResourcePoolAsset[Asset]" style="rounded=0;whiteSpace=wrap;html=1;" vertex="1" parent="1">
          <mxGeometry x="1260" y="330" width="180" height="60" as="geometry" />
        </mxCell>
        <mxCell id="dF8RnB-I_yv6K1FxDzUF-23" style="edgeStyle=orthogonalEdgeStyle;rounded=0;orthogonalLoop=1;jettySize=auto;html=1;entryX=0;entryY=0.5;entryDx=0;entryDy=0;" edge="1" parent="1" source="dF8RnB-I_yv6K1FxDzUF-22" target="NCb64TqYSXtvt93eE6UL-1">
          <mxGeometry relative="1" as="geometry" />
        </mxCell>
        <mxCell id="dF8RnB-I_yv6K1FxDzUF-24" value="CreateBuffer" style="edgeLabel;html=1;align=center;verticalAlign=middle;resizable=0;points=[];" vertex="1" connectable="0" parent="dF8RnB-I_yv6K1FxDzUF-23">
          <mxGeometry x="-0.1143" y="1" relative="1" as="geometry">
            <mxPoint x="8" y="1" as="offset" />
          </mxGeometry>
        </mxCell>
        <mxCell id="dF8RnB-I_yv6K1FxDzUF-22" value="&lt;span style=&quot;color: rgba(0, 0, 0, 0.9); text-align: start; white-space: pre; background-color: rgb(255, 255, 255);&quot;&gt;&lt;font face=&quot;Helvetica&quot;&gt;FRDGBufferDesc&lt;/font&gt;&lt;/span&gt;" style="rounded=0;whiteSpace=wrap;html=1;" vertex="1" parent="1">
          <mxGeometry x="-120" y="120" width="180" height="60" as="geometry" />
        </mxCell>
        <mxCell id="dF8RnB-I_yv6K1FxDzUF-26" style="edgeStyle=orthogonalEdgeStyle;rounded=0;orthogonalLoop=1;jettySize=auto;html=1;exitX=1;exitY=0.5;exitDx=0;exitDy=0;entryX=0;entryY=0.5;entryDx=0;entryDy=0;" edge="1" parent="1" source="dF8RnB-I_yv6K1FxDzUF-25" target="21PZatJOxBAHX9u_luXF-2">
          <mxGeometry relative="1" as="geometry" />
        </mxCell>
        <mxCell id="dF8RnB-I_yv6K1FxDzUF-27" value="CreateBuffer" style="edgeLabel;html=1;align=center;verticalAlign=middle;resizable=0;points=[];" vertex="1" connectable="0" parent="dF8RnB-I_yv6K1FxDzUF-26">
          <mxGeometry x="-0.1524" y="-1" relative="1" as="geometry">
            <mxPoint x="11" y="-1" as="offset" />
          </mxGeometry>
        </mxCell>
        <mxCell id="dF8RnB-I_yv6K1FxDzUF-25" value="FRHICommandListBase" style="rounded=0;whiteSpace=wrap;html=1;" vertex="1" parent="1">
          <mxGeometry x="-120" y="424" width="180" height="60" as="geometry" />
        </mxCell>
        <mxCell id="dF8RnB-I_yv6K1FxDzUF-29" style="edgeStyle=orthogonalEdgeStyle;rounded=0;orthogonalLoop=1;jettySize=auto;html=1;entryX=1;entryY=0.5;entryDx=0;entryDy=0;" edge="1" parent="1" source="dF8RnB-I_yv6K1FxDzUF-28" target="21PZatJOxBAHX9u_luXF-3">
          <mxGeometry relative="1" as="geometry" />
        </mxCell>
        <mxCell id="dF8RnB-I_yv6K1FxDzUF-30" value="CreateAttachmentFromDesc" style="edgeLabel;html=1;align=center;verticalAlign=middle;resizable=0;points=[];" vertex="1" connectable="0" parent="dF8RnB-I_yv6K1FxDzUF-29">
          <mxGeometry x="0.2542" y="1" relative="1" as="geometry">
            <mxPoint x="26" y="-1" as="offset" />
          </mxGeometry>
        </mxCell>
        <mxCell id="dF8RnB-I_yv6K1FxDzUF-28" value="PassBufferAttachmentDesc" style="rounded=0;whiteSpace=wrap;html=1;" vertex="1" parent="1">
          <mxGeometry x="941" y="120" width="180" height="60" as="geometry" />
        </mxCell>
        <mxCell id="dF8RnB-I_yv6K1FxDzUF-31" value="" style="endArrow=none;dashed=1;html=1;rounded=0;" edge="1" parent="1">
          <mxGeometry width="50" height="50" relative="1" as="geometry">
            <mxPoint x="480" y="480" as="sourcePoint" />
            <mxPoint x="480" as="targetPoint" />
          </mxGeometry>
        </mxCell>
        <mxCell id="dF8RnB-I_yv6K1FxDzUF-32" value="UE" style="text;html=1;align=center;verticalAlign=middle;resizable=0;points=[];autosize=1;strokeColor=none;fillColor=none;" vertex="1" parent="1">
          <mxGeometry x="440" y="448" width="40" height="30" as="geometry" />
        </mxCell>
        <mxCell id="dF8RnB-I_yv6K1FxDzUF-33" value="O3DE" style="text;html=1;align=center;verticalAlign=middle;resizable=0;points=[];autosize=1;strokeColor=none;fillColor=none;" vertex="1" parent="1">
          <mxGeometry x="480" y="448" width="60" height="30" as="geometry" />
        </mxCell>
      </root>
    </mxGraphModel>
  </diagram>
</mxfile>
